<svg width="24" height="24" viewBox="0 0 24 24" fill="none" xmlns="http://www.w3.org/2000/svg">
<path fill-rule="evenodd" clip-rule="evenodd" d="M1 4C1 3.44772 1.44772 3 2 3H3.875C4.98611 3 5.96389 3.73333 6.275 4.8L6.625 6H20.5576C22.1957 6 23.3525 7.60487 22.8344 9.15895L21.0185 14.6068C20.5421 16.036 19.2046 17 17.6981 17H10.375C8.81944 17 7.45056 15.9733 7.015 14.48L4.355 5.36C4.29278 5.14667 4.09722 5 3.875 5H2C1.44772 5 1 4.55228 1 4ZM7.20833 8L8.935 13.92C9.12167 14.56 9.70833 15 10.375 15H17.6981C18.3437 15 18.917 14.5869 19.1211 13.9743L20.9371 8.52649C21.0234 8.26748 20.8306 8 20.5576 8H7.20833Z" fill="black"/>
<path d="M8.5 20.65C8.5 19.7387 9.23873 19 10.15 19C11.0613 19 11.8 19.7387 11.8 20.65C11.8 21.5613 11.0613 22.3 10.15 22.3C9.23873 22.3 8.5 21.5613 8.5 20.65Z" fill="black"/>
<path d="M17.65 19C16.7387 19 16 19.7387 16 20.65C16 21.5613 16.7387 22.3 17.65 22.3C18.5613 22.3 19.3 21.5613 19.3 20.65C19.3 19.7387 18.5613 19 17.65 19Z" fill="black"/>
</svg>
