<svg width="24" height="24" viewBox="0 0 24 24" fill="none" xmlns="http://www.w3.org/2000/svg">
<path d="M8 11C7.44772 11 7 11.4477 7 12C7 12.5523 7.44772 13 8 13H16C16.5523 13 17 12.5523 17 12C17 11.4477 16.5523 11 16 11H8Z" fill="black"/>
<path d="M8 15C7.44772 15 7 15.4477 7 16C7 16.5523 7.44772 17 8 17H11C11.5523 17 12 16.5523 12 16C12 15.4477 11.5523 15 11 15H8Z" fill="black"/>
<path fill-rule="evenodd" clip-rule="evenodd" d="M3 6C3 3.79086 4.79086 2 7 2H14.2574C15.3182 2 16.3356 2.42143 17.0858 3.17157L19.8284 5.91421C20.5786 6.66436 21 7.68178 21 8.74264V18C21 20.2091 19.2091 22 17 22H7C4.79086 22 3 20.2091 3 18V6ZM7 4C5.89543 4 5 4.89543 5 6V18C5 19.1046 5.89543 20 7 20H17C18.1046 20 19 19.1046 19 18V9H16C14.8954 9 14 8.10457 14 7V4H7ZM16 4.91421L18.0858 7H16V4.91421Z" fill="black"/>
</svg>
