<svg width="24" height="24" viewBox="0 0 24 24" fill="none" xmlns="http://www.w3.org/2000/svg">
<g clip-path="url(#clip0_225_321)">
<path fill-rule="evenodd" clip-rule="evenodd" d="M8.00025 11C8.00025 10.1716 8.67182 9.5 9.50025 9.5H14.5002C15.3287 9.5 16.0002 10.1716 16.0002 11V15.5C16.0002 16.3284 15.3287 17 14.5002 17H9.50025C8.67182 17 8.00025 16.3284 8.00025 15.5V11ZM10.0002 11.5V15H14.0002V11.5H10.0002Z" fill="black"/>
<path fill-rule="evenodd" clip-rule="evenodd" d="M12.414 2.08963C12.1511 1.97012 11.8494 1.97012 11.5864 2.08963L0.586442 7.08963C0.0836604 7.31817 -0.138659 7.91102 0.0898784 8.4138C0.318415 8.91658 0.911266 9.1389 1.41405 8.91037L3.00024 8.18937V18.5C3.00024 20.433 4.56725 22 6.50024 22H17.5002C19.4332 22 21.0002 20.433 21.0002 18.5V8.18937L22.5864 8.91037C23.0892 9.1389 23.6821 8.91658 23.9106 8.4138C24.1391 7.91102 23.9168 7.31817 23.414 7.08963L12.414 2.08963ZM19.0002 7.28028L12.0002 4.09846L5.00024 7.28028V18.5C5.00024 19.3284 5.67182 20 6.50024 20H17.5002C18.3287 20 19.0002 19.3284 19.0002 18.5V7.28028Z" fill="black"/>
</g>
<defs>
<clipPath id="clip0_225_321">
<rect width="24" height="24" fill="white"/>
</clipPath>
</defs>
</svg>
