<svg width="24" height="24" viewBox="0 0 24 24" fill="none" xmlns="http://www.w3.org/2000/svg">
<path d="M1.10001 2.5001C1.10001 1.7269 1.72681 1.1001 2.50001 1.1001H7.00001C7.49706 1.1001 7.90001 1.50304 7.90001 2.0001C7.90001 2.49715 7.49706 2.9001 7.00001 2.9001H2.90001V7.0001C2.90001 7.49715 2.49706 7.9001 2.00001 7.9001C1.50295 7.9001 1.10001 7.49715 1.10001 7.0001V2.5001Z" fill="black"/>
<path d="M16.1 2.0001C16.1 1.50304 16.5029 1.1001 17 1.1001H21.5C22.2732 1.1001 22.9 1.7269 22.9 2.5001V7.0001C22.9 7.49715 22.4971 7.9001 22 7.9001C21.503 7.9001 21.1 7.49715 21.1 7.0001V2.9001H17C16.5029 2.9001 16.1 2.49715 16.1 2.0001Z" fill="black"/>
<path d="M7.35001 8.6501V7.3501H8.65001V8.6501H7.35001Z" fill="black"/>
<path fill-rule="evenodd" clip-rule="evenodd" d="M4.60001 5.5001C4.60001 5.00304 5.00295 4.6001 5.50001 4.6001H10.5C10.9971 4.6001 11.4 5.00304 11.4 5.5001V10.5001C11.4 10.9972 10.9971 11.4001 10.5 11.4001H5.50001C5.00295 11.4001 4.60001 10.9972 4.60001 10.5001V5.5001ZM9.60001 6.4001H6.40001V9.6001H9.60001V6.4001Z" fill="black"/>
<path d="M15.35 8.6501V7.3501H16.65V8.6501H15.35Z" fill="black"/>
<path fill-rule="evenodd" clip-rule="evenodd" d="M12.6 5.5001C12.6 5.00304 13.003 4.6001 13.5 4.6001H18.5C18.9971 4.6001 19.4 5.00304 19.4 5.5001V10.5001C19.4 10.9972 18.9971 11.4001 18.5 11.4001H13.5C13.0029 11.4001 12.6 10.9972 12.6 10.5001V5.5001ZM17.6 6.4001H14.4V9.6001H17.6V6.4001Z" fill="black"/>
<path d="M7.35001 16.6501V15.3501H8.65001V16.6501H7.35001Z" fill="black"/>
<path fill-rule="evenodd" clip-rule="evenodd" d="M4.60001 13.5001C4.60001 13.003 5.00295 12.6001 5.50001 12.6001H10.5C10.9971 12.6001 11.4 13.003 11.4 13.5001V18.5001C11.4 18.9972 10.9971 19.4001 10.5 19.4001H5.50001C5.00295 19.4001 4.60001 18.9972 4.60001 18.5001V13.5001ZM9.60001 14.4001H6.40001V17.6001H9.60001V14.4001Z" fill="black"/>
<path d="M12.6 13.5001C12.6 13.003 13.003 12.6001 13.5 12.6001H17.0668V14.4001H14.4V17.0671H12.6V13.5001Z" fill="black"/>
<path d="M17.6 17.6001V14.9338H19.4V18.5001C19.4 18.9972 18.9971 19.4001 18.5 19.4001H14.9334V17.6001H17.6Z" fill="black"/>
<path d="M15.35 16.6501V15.3501H16.65V16.6501H15.35Z" fill="black"/>
<path d="M1.10001 17.0001C1.10001 16.503 1.50295 16.1001 2.00001 16.1001C2.49706 16.1001 2.90001 16.503 2.90001 17.0001V21.1001H7.00001C7.49706 21.1001 7.90001 21.503 7.90001 22.0001C7.90001 22.4972 7.49706 22.9001 7.00001 22.9001H2.50001C1.72681 22.9001 1.10001 22.2733 1.10001 21.5001V17.0001Z" fill="black"/>
<path d="M21.1 17.0001C21.1 16.503 21.503 16.1001 22 16.1001C22.4971 16.1001 22.9 16.503 22.9 17.0001V21.5001C22.9 22.2733 22.2732 22.9001 21.5 22.9001H17C16.5029 22.9001 16.1 22.4972 16.1 22.0001C16.1 21.503 16.5029 21.1001 17 21.1001H21.1V17.0001Z" fill="black"/>
</svg>
