<svg width="24" height="24" viewBox="0 0 24 24" fill="none" xmlns="http://www.w3.org/2000/svg">
<path d="M12 9.70587C11.3827 9.70587 10.8824 10.2063 10.8824 10.8235C10.8824 11.4408 11.3827 11.9412 12 11.9412C12.6173 11.9412 13.1176 11.4408 13.1176 10.8235C13.1176 10.2063 12.6173 9.70587 12 9.70587Z" fill="black"/>
<path d="M15.3529 10.8235C15.3529 10.2063 15.8533 9.70587 16.4706 9.70587C17.0879 9.70587 17.5882 10.2063 17.5882 10.8235C17.5882 11.4408 17.0879 11.9412 16.4706 11.9412C15.8533 11.9412 15.3529 11.4408 15.3529 10.8235Z" fill="black"/>
<path d="M7.52941 9.70587C6.91215 9.70587 6.41177 10.2063 6.41177 10.8235C6.41177 11.4408 6.91215 11.9412 7.52941 11.9412C8.14667 11.9412 8.64706 11.4408 8.64706 10.8235C8.64706 10.2063 8.14667 9.70587 7.52941 9.70587Z" fill="black"/>
<path fill-rule="evenodd" clip-rule="evenodd" d="M5.29412 2C2.89005 2 0.941177 3.94888 0.941177 6.35294V22C0.941177 22.3729 1.14863 22.7148 1.47937 22.887C1.8101 23.0592 2.20917 23.0331 2.51464 22.8192L7.66994 19.2105C7.78365 19.1309 7.91908 19.0882 8.05787 19.0882H18.7059C21.1099 19.0882 23.0588 17.1394 23.0588 14.7353V6.35294C23.0588 3.94888 21.11 2 18.7059 2H5.29412ZM2.94118 6.35294C2.94118 5.05345 3.99463 4 5.29412 4H18.7059C20.0054 4 21.0588 5.05345 21.0588 6.35294V14.7353C21.0588 16.0348 20.0054 17.0882 18.7059 17.0882H8.05787C7.50874 17.0882 6.97289 17.2571 6.52302 17.5721L2.94118 20.0793V6.35294Z" fill="black"/>
</svg>
