<svg width="24" height="24" viewBox="0 0 24 24" fill="none" xmlns="http://www.w3.org/2000/svg">
<path d="M19.5 2C21.433 2 23 3.567 23 5.5V13.5C23 15.433 21.433 17 19.5 17H13.5C12.9477 17 12.5 16.5523 12.5 16C12.5 15.4477 12.9477 15 13.5 15H19.5C20.3284 15 21 14.3284 21 13.5V5.5C21 4.67157 20.3284 4 19.5 4H5.5C4.67157 4 4 4.67157 4 5.5V6C4 6.55228 3.55228 7 3 7C2.44772 7 2 6.55228 2 6V5.5C2 3.567 3.567 2 5.5 2H19.5Z" fill="black"/>
<path d="M18 18C18.5523 18 19 18.4477 19 19C19 19.5523 18.5523 20 18 20H13.5C12.9477 20 12.5 19.5523 12.5 19C12.5 18.4477 12.9477 18 13.5 18H18Z" fill="black"/>
<path d="M6.5 17C7.05228 17 7.5 17.4477 7.5 18C7.5 18.5523 7.05228 19 6.5 19H5.5C4.94772 19 4.5 18.5523 4.5 18C4.5 17.4477 4.94772 17 5.5 17H6.5Z" fill="black"/>
<path fill-rule="evenodd" clip-rule="evenodd" d="M11 10.8C11 9.2536 9.7464 8 8.2 8H3.8C2.2536 8 1 9.2536 1 10.8V19.2C1 20.7464 2.2536 22 3.8 22H8.2C9.7464 22 11 20.7464 11 19.2V10.8ZM8.2 10C8.64183 10 9 10.3582 9 10.8V19.2C9 19.6418 8.64183 20 8.2 20H3.8C3.35817 20 3 19.6418 3 19.2V10.8C3 10.3582 3.35817 10 3.8 10H8.2Z" fill="black"/>
</svg>
