<svg width="24" height="24" viewBox="0 0 24 24" fill="none" xmlns="http://www.w3.org/2000/svg">
<path d="M10 10.5C9.44771 10.5 9 10.9477 9 11.5C9 12.0523 9.44771 12.5 10 12.5H14C14.5523 12.5 15 12.0523 15 11.5C15 10.9477 14.5523 10.5 14 10.5H10Z" fill="black"/>
<path d="M9 15C9 14.4477 9.44771 14 10 14H14C14.5523 14 15 14.4477 15 15C15 15.5523 14.5523 16 14 16H10C9.44771 16 9 15.5523 9 15Z" fill="black"/>
<path fill-rule="evenodd" clip-rule="evenodd" d="M5 9.5H3.8C2.2536 9.5 1 8.2464 1 6.7V4.3C1 2.7536 2.2536 1.5 3.8 1.5H20.2C21.7464 1.5 23 2.7536 23 4.3V6.7C23 8.2464 21.7464 9.5 20.2 9.5H19V21.5C19 21.8466 18.8205 22.1684 18.5257 22.3507C18.2309 22.5329 17.8628 22.5494 17.5528 22.3944L16 21.618L14.4472 22.3944C14.1657 22.5352 13.8343 22.5352 13.5528 22.3944L12 21.618L10.4472 22.3944C10.1657 22.5352 9.83431 22.5352 9.55279 22.3944L8 21.618L6.44721 22.3944C6.13723 22.5494 5.76909 22.5329 5.47427 22.3507C5.17945 22.1684 5 21.8466 5 21.5V9.5ZM3 4.3C3 3.85817 3.35817 3.5 3.8 3.5H20.2C20.6418 3.5 21 3.85817 21 4.3V6.7C21 7.14183 20.6418 7.5 20.2 7.5H19V7C19 5.89543 18.1046 5 17 5H7C5.89543 5 5 5.89543 5 7V7.5H3.8C3.35817 7.5 3 7.14183 3 6.7V4.3ZM7 7H17V19.882L16.4472 19.6056C16.1657 19.4648 15.8343 19.4648 15.5528 19.6056L14 20.382L12.4472 19.6056C12.1657 19.4648 11.8343 19.4648 11.5528 19.6056L10 20.382L8.44721 19.6056C8.16569 19.4648 7.83431 19.4648 7.55279 19.6056L7 19.882V7Z" fill="black"/>
</svg>
