<svg
  width="24"
  height="24"
  viewBox="0 0 24 24"
  xmlns="http://www.w3.org/2000/svg"
>
  <path
    fill="#f14635"
    fill-rule="evenodd"
    clip-rule="evenodd"
    d="M8.25 6C7.00736 6 6 7.00736 6 8.25V16.5C6 17.3284 6.67157 18 7.5 18H8.99231V14.25C8.99231 13.8358 9.3281 13.5 9.74231 13.5C10.1565 13.5 10.4923 13.8358 10.4923 14.25V18H13.5075V14.25C13.5075 13.8358 13.8433 13.5 14.2575 13.5C14.6717 13.5 15.0075 13.8358 15.0075 14.25V18H16.5C17.3284 18 18 17.3284 18 16.5V8.25C18 7.00736 16.9926 6 15.75 6H8.25ZM4.5 8.25C4.5 6.17893 6.17893 4.5 8.25 4.5H15.75C17.8211 4.5 19.5 6.17893 19.5 8.25V16.5C19.5 18.1569 18.1569 19.5 16.5 19.5H7.5C5.84315 19.5 4.5 18.1569 4.5 16.5V8.25ZM7.86346 8.25C7.86346 7.83579 8.19925 7.5 8.61346 7.5H15.3863C15.8005 7.5 16.1363 7.83579 16.1363 8.25C16.1363 8.66421 15.8005 9 15.3863 9H8.61346C8.19925 9 7.86346 8.66421 7.86346 8.25ZM8.61346 10.5C8.19925 10.5 7.86346 10.8358 7.86346 11.25C7.86346 11.6642 8.19925 12 8.61346 12H12.8415C13.2557 12 13.5915 11.6642 13.5915 11.25C13.5915 10.8358 13.2557 10.5 12.8415 10.5H8.61346Z"
  />
</svg>
