<svg width="32" height="33" viewBox="0 0 32 33" fill="none" xmlns="http://www.w3.org/2000/svg">
<path d="M12 14.5C12 13.7636 11.403 13.1667 10.6667 13.1667C9.93029 13.1667 9.33333 13.7636 9.33333 14.5C9.33333 15.6023 9.65304 17.226 10.6513 18.6124C11.6985 20.0668 13.4321 21.1667 16 21.1667C18.5679 21.1667 20.3015 20.0668 21.3487 18.6124C22.347 17.226 22.6667 15.6023 22.6667 14.5C22.6667 13.7636 22.0697 13.1667 21.3333 13.1667C20.597 13.1667 20 13.7636 20 14.5C20 15.1755 19.7864 16.2185 19.1846 17.0543C18.6318 17.822 17.6988 18.5 16 18.5C14.3012 18.5 13.3682 17.822 12.8154 17.0543C12.2136 16.2185 12 15.1755 12 14.5Z" fill="#F14635"/>
<path fill-rule="evenodd" clip-rule="evenodd" d="M10 5.56667V6.5H7.6C4.50721 6.5 2 9.0072 2 12.1V22.2333C2 24.773 3.6906 26.9178 6.00779 27.6037C6.00263 27.6796 6 27.7562 6 27.8333C6 29.6743 7.49238 31.1667 9.33333 31.1667C11.1743 31.1667 12.6667 29.6743 12.6667 27.8333H19.3333C19.3333 29.6743 20.8257 31.1667 22.6667 31.1667C24.5076 31.1667 26 29.6743 26 27.8333C26 27.7562 25.9974 27.6796 25.9922 27.6037C28.3094 26.9178 30 24.773 30 22.2333V12.1C30 9.00721 27.4928 6.5 24.4 6.5H22V5.56667C22 3.5048 20.3285 1.83333 18.2667 1.83333H13.7333C11.6715 1.83333 10 3.5048 10 5.56667ZM13.7333 4.5C13.1442 4.5 12.6667 4.97756 12.6667 5.56667V6.5H19.3333V5.56667C19.3333 4.97756 18.8558 4.5 18.2667 4.5H13.7333ZM22.6667 28.7667C22.1512 28.7667 21.7333 28.3488 21.7333 27.8333H23.6C23.6 28.3488 23.1821 28.7667 22.6667 28.7667ZM8.4 27.8333C8.4 28.3488 8.81787 28.7667 9.33333 28.7667C9.8488 28.7667 10.2667 28.3488 10.2667 27.8333H8.4ZM7.6 9.16667C5.97996 9.16667 4.66667 10.48 4.66667 12.1V22.2333C4.66667 23.8534 5.97996 25.1667 7.6 25.1667H24.4C26.02 25.1667 27.3333 23.8534 27.3333 22.2333V12.1C27.3333 10.48 26.02 9.16667 24.4 9.16667H7.6Z" fill="#F14635"/>
</svg>
