<svg width="24" height="24" viewBox="0 0 24 24" fill="none" xmlns="http://www.w3.org/2000/svg">
<path d="M3.99994 11.8858C3.99994 12.4381 3.55222 12.8858 2.99994 12.8858C2.44765 12.8858 1.99994 12.4381 1.99994 11.8858C1.99994 10.4073 2.23768 9.22088 2.73825 8.17921C3.23952 7.13606 3.98617 6.3051 4.93838 5.73835C5.90773 5.1614 7.01823 4.88579 8.39115 4.88579H18.2289L17.0502 3.70711C16.6597 3.31658 16.6597 2.68342 17.0502 2.29289C17.4407 1.90237 18.0739 1.90237 18.4644 2.29289L21.2928 5.12132C21.5099 5.33842 21.7043 5.63051 21.68 5.91421C21.7043 6.19792 21.5099 6.49001 21.2928 6.70711L18.4644 9.53553C18.0739 9.92606 17.4407 9.92606 17.0502 9.53553C16.6597 9.14501 16.6597 8.51185 17.0502 8.12132L18.2857 6.88579H8.39115C7.36267 6.88579 6.60502 7.07382 5.9613 7.45696C5.35268 7.81921 4.87438 8.35152 4.54091 9.04547C4.1788 9.799 3.99994 10.6916 3.99994 11.8858Z" fill="black"/>
<path d="M19.9999 11.8858C19.9999 11.3335 20.4477 10.8858 20.9999 10.8858C21.5522 10.8858 21.9999 11.3335 21.9999 11.8858C21.9999 13.2993 21.759 14.5086 21.2697 15.5481C20.7733 16.6029 20.0329 17.4441 19.0871 18.0189C18.1332 18.5985 17.0164 18.8858 15.7194 18.8858H5.71415L6.94969 20.1213C7.34021 20.5118 7.34021 21.145 6.94969 21.5355C6.55916 21.9261 5.926 21.9261 5.53547 21.5355L2.70705 18.7071C2.48994 18.49 2.29572 18.1979 2.32 17.9142C2.29572 17.6305 2.48994 17.3384 2.70705 17.1213L5.53547 14.2929C5.926 13.9024 6.55916 13.9024 6.94969 14.2929C7.34021 14.6834 7.34021 15.3166 6.94969 15.7071L5.77101 16.8858H15.7194C16.6636 16.8858 17.421 16.691 18.0485 16.3097C18.6522 15.9428 19.1279 15.4023 19.4601 14.6964C19.8166 13.9391 19.9999 13.0189 19.9999 11.8858Z" fill="black"/>
</svg>
